<svg width="170" height="41" viewBox="0 0 170 41" fill="none" xmlns="http://www.w3.org/2000/svg"><path fill-rule="evenodd" clip-rule="evenodd" d="M22.2911 11.7052C19.2126 14.7466 16.2952 17.9556 13.309 21.0927C12.7668 21.6646 11.1636 23.2966 10.6355 23.8852C8.04485 26.7759 9.85878 29.176 11.0665 30.1739C12.2742 31.1717 14.8554 32.4065 17.5408 29.6355C20.7282 26.3547 24.3726 22.5308 27.5624 19.2549C28.3331 18.4523 29.1679 17.7152 30.0583 17.051C32.1659 15.5028 34.3658 15.7589 36.5681 16.8644C36.8049 16.9816 37.0417 17.1037 37.1625 17.1563C34.2545 14.0455 34.9483 14.6366 31.8722 11.6047C30.3259 10.0828 28.7393 9.32666 27.1503 9.32666C25.5211 9.32666 23.8824 10.1235 22.2911 11.7052Z" fill="#005DEA"></path><path fill-rule="evenodd" clip-rule="evenodd" d="M35.6874 19.6416C34.1979 19.6148 32.7499 20.1343 31.6148 21.1028L25.4736 27.1871C25.4736 27.1871 31.6935 30.4209 32.216 30.6604C32.7385 30.8999 34.2726 31.6497 35.4822 31.6713C36.2731 31.693 37.0605 31.5571 37.7989 31.2714C38.5372 30.9857 39.2117 30.5559 39.7836 30.0067C40.3554 29.4576 40.8131 28.8002 41.1302 28.0724C41.4474 27.3445 41.6176 26.5608 41.6312 25.7665C41.6448 24.9722 41.5013 24.1831 41.2092 23.4447C40.9171 22.7064 40.4821 22.0336 39.9294 21.4651C39.3766 20.8967 38.7171 20.4439 37.989 20.1329C37.2609 19.822 36.4786 19.6591 35.6874 19.6536V19.6416Z" fill="#005DEA"></path><path d="M94.209 18.3785V9.97388L90.6557 11.4088V30.5131H94.1818V23.0582C94.1818 22.0708 94.4818 21.2255 95.0299 20.6282C95.577 20.032 96.3792 19.6739 97.4026 19.6739C98.2242 19.6739 98.8951 19.9381 99.3621 20.4668C99.8307 20.9971 100.106 21.8073 100.106 22.922V30.5131H103.632V22.1322C103.632 20.3735 103.192 18.9505 102.32 17.966C101.445 16.9795 100.148 16.4474 98.4647 16.4474C96.6353 16.4474 95.1089 17.1924 94.209 18.3785Z" fill="#005DEA"></path><path d="M69.626 10.1563C68.4287 10.1563 67.4817 11.0707 67.4817 12.2461C67.4817 13.4198 68.4269 14.3632 69.626 14.3632C70.7725 14.3632 71.7158 13.418 71.7158 12.2461C71.7158 11.0725 70.7706 10.1563 69.626 10.1563Z" fill="#005DEA"></path><path fill-rule="evenodd" clip-rule="evenodd" d="M58.9319 10.4014H50.9595V30.5131H54.6489V23.6501H58.9319C60.9436 23.6501 62.6183 22.9676 63.7903 21.7921C64.9622 20.6167 65.6243 18.9557 65.6243 17.0121C65.6243 15.0419 64.9694 13.3873 63.8002 12.2251C62.6311 11.0629 60.9562 10.4014 58.9319 10.4014ZM54.6489 20.3419V13.7096H58.251C59.3919 13.7096 60.2694 14.0048 60.861 14.5539C61.4514 15.1019 61.7715 15.9162 61.7715 16.9849C61.7715 18.0543 61.4578 18.8895 60.8633 19.4578C60.2682 20.0268 59.3775 20.3419 58.1966 20.3419H54.6489Z" fill="#005DEA"></path><path d="M126.443 17.2647L122.917 15.8501V30.5131H126.443V22.7858C126.443 21.7165 126.756 20.9409 127.251 20.4329C127.746 19.9249 128.433 19.6739 129.201 19.6739C129.968 19.6739 130.585 19.9181 131.012 20.3799C131.439 20.8427 131.686 21.5369 131.686 22.459V30.5131H135.212V22.7858C135.212 21.7014 135.513 20.9189 135.998 20.4081C136.482 19.8978 137.161 19.6466 137.943 19.6466C138.71 19.6466 139.335 19.8909 139.768 20.3595C140.202 20.8291 140.455 21.5369 140.455 22.4862V30.5131H143.954V21.6147C143.954 20.043 143.499 18.7485 142.618 17.8466C141.737 16.9443 140.442 16.4474 138.787 16.4474C136.796 16.4474 135.225 17.3906 134.483 18.8725C133.73 17.3944 132.313 16.4474 130.317 16.4474C128.514 16.4474 127.19 17.1938 126.443 18.2042V17.2647Z" fill="#005DEA"></path><path d="M82.3729 16.4474C80.6203 16.4474 79.0302 17.1655 78.1301 18.4269L77.8846 16.856H74.6184V30.5131H78.1444V23.1671C78.1444 22.0968 78.4519 21.2245 78.9997 20.621C79.5464 20.0186 80.3415 19.6739 81.338 19.6739C82.1737 19.6739 82.8514 19.9384 83.3216 20.467C83.7933 20.9973 84.0687 21.8073 84.0687 22.922V30.5131H87.5947V22.1322C87.5947 20.3735 87.155 18.9503 86.2752 17.9657C85.3937 16.9792 84.0832 16.4474 82.3729 16.4474Z" fill="#005DEA"></path><path fill-rule="evenodd" clip-rule="evenodd" d="M153.024 16.4474C151.023 16.4474 149.321 17.1862 148.119 18.4642C146.918 19.7417 146.223 21.5516 146.223 23.6845C146.223 25.7911 146.932 27.5876 148.154 28.8581C149.376 30.1288 151.106 30.8672 153.133 30.8672C154.906 30.8672 156.42 30.4203 157.564 29.5952C158.709 28.7692 159.478 27.5684 159.769 26.0733L159.793 25.9522H156.516L156.494 26.0249C156.131 27.2452 154.987 27.9403 153.188 27.9403C152.103 27.9403 151.266 27.6462 150.671 27.0734C150.093 26.5181 149.73 25.689 149.597 24.5757L159.717 24.5485V23.4394C159.717 21.3217 159.07 19.5721 157.905 18.3513C156.739 17.1299 155.063 16.4474 153.024 16.4474ZM156.216 22.2483H149.686C149.857 21.3156 150.222 20.6097 150.763 20.1318C151.326 19.6344 152.09 19.3743 153.051 19.3743C154.024 19.3743 154.815 19.6739 155.361 20.1907C155.886 20.6875 156.194 21.3926 156.216 22.2483Z" fill="#005DEA"></path><path fill-rule="evenodd" clip-rule="evenodd" d="M113.195 16.4747C111.088 16.4747 109.264 17.205 107.966 18.4713C106.669 19.7378 105.903 21.5349 105.903 23.6573C105.903 25.7797 106.669 27.5768 107.966 28.8433C109.264 30.1096 111.088 30.8399 113.195 30.8399C115.302 30.8399 117.126 30.1096 118.423 28.8433C119.721 27.5768 120.486 25.7797 120.486 23.6573C120.486 21.5349 119.721 19.7378 118.423 18.4713C117.126 17.205 115.302 16.4747 113.195 16.4747ZM109.429 23.6573C109.429 22.4538 109.817 21.4519 110.477 20.7518C111.137 20.0521 112.077 19.6466 113.195 19.6466C114.313 19.6466 115.252 20.0521 115.912 20.7518C116.573 21.4519 116.96 22.4538 116.96 23.6573C116.96 24.8608 116.573 25.8627 115.912 26.5628C115.252 27.2625 114.313 27.668 113.195 27.668C112.077 27.668 111.137 27.2625 110.477 26.5628C109.817 25.8627 109.429 24.8608 109.429 23.6573Z" fill="#005DEA"></path><path d="M71.389 16.856H67.863V30.5131H71.389V16.856Z" fill="#005DEA"></path></svg>