<svg width="440" height="130" viewBox="0 0 440 130" fill="none" xmlns="http://www.w3.org/2000/svg"><path d="M113.7 27.3a5.8 5.8 0 0 0-6.5.3l-33.4 24-37 26.6L1.3 52.6c.7-1.5 1.8-2.8 3-4l.4-.1L36.9 25l33.3-24a6 6 0 0 1 7 0l36.5 26.2Z" fill="#67C5FE"/><path d="M36.9 78.2V130c-1 0-2-.3-3.1-.9l-.2-.1L5 108.3A11.6 11.6 0 0 1 0 98.8V57.7c0-1.8.4-3.5 1.2-5.1l35.7 25.6Z" fill="#029FFD"/><path d="M146.3 103.9c-.7 1.5-1.7 3-3 4l-.6.4-28.7 20.5c-.3.2-.6.3-.7.5-1.6.8-3.7.8-5.3 0l-.8-.5-33.4-24 33.4-24a6 6 0 0 1 7 0l32.1 23.1Z" fill="#0065C1"/><path d="M147.5 57.7v41.2c0 1.8-.4 3.5-1.2 5.1L114 80.7a6 6 0 0 0-6.9 0l-33.3 24-3.4 2.6L40 129c-1 .7-2.2 1-3.2 1V78.2l36.9-26.5 33.4-24c2-1.5 4.6-1.5 6.5-.4l.5.3 6.3 4.6 22.2 16 1 .9.4.4c2.2 2.2 3.4 5.1 3.4 8.2Z" fill="#2DAFFD"/><path fill-rule="evenodd" clip-rule="evenodd" d="M397.8 59.7c-.6 0-1.1-.2-1.5-.6-.3-.5-.5-1-.5-1.5V2.2c0-.6.2-1 .5-1.5a2 2 0 0 1 1.5-.5h10.5c.6 0 1 .2 1.4.5.4.4.6 1 .6 1.5v18.5a16 16 0 0 1 5.5-4c2.2-1.1 4.7-1.6 7.5-1.6 3.2 0 6 .7 8.5 2.1 2.5 1.5 4.5 3.5 6 6.3 1.3 2.8 2 6.2 2 10.3v23.9c0 .5-.2 1-.5 1.4-.4.4-1 .6-1.5.6h-10.6a2 2 0 0 1-1.4-.6 2 2 0 0 1-.7-1.4V34.2c0-2.5-.6-4.6-1.8-6-1.3-1.4-3-2-5.4-2-2.3 0-4.2.6-5.6 2a8.3 8.3 0 0 0-2 6v23.5c0 .5-.2 1-.6 1.4-.4.4-.9.6-1.5.6h-10.4ZM182.6 59c.3.4.8.6 1.4.6h10.2c.6 0 1.1-.1 1.5-.5.4-.5.6-1 .6-1.5V35c0-2.3.7-4 2-5.3 1.1-1.3 2.9-1.9 5.1-1.9h8a2 2 0 0 0 1.5-.6c.4-.4.6-.9.6-1.4V17a2 2 0 0 0-.6-1.5c-.4-.3-.9-.5-1.5-.5h-3.6c-2.6 0-5 .4-7 1.4-2 .9-3.8 2.2-5.2 4V17c0-.5-.2-1-.6-1.4a2 2 0 0 0-1.5-.6H184c-.6 0-1 .2-1.4.6-.4.4-.6.9-.6 1.4v40.5c0 .6.2 1 .6 1.5Zm44-1.6c2.4 1.5 5.2 2.2 8.4 2.2 3 0 5.8-.5 8-1.5 2.4-1 4.2-2.6 5.6-4.5v4c0 .5.2 1 .7 1.4.4.4.8.6 1.4.6h9.5c.6 0 1.1-.2 1.5-.6.3-.4.5-.9.5-1.4V17a2 2 0 0 0-.5-1.5 2 2 0 0 0-1.5-.5H250a2 2 0 0 0-1.4.5c-.4.4-.6 1-.6 1.5v23.4c0 2.6-.7 4.6-2 6a7.2 7.2 0 0 1-5.4 2.1c-4.8 0-7.2-2.7-7.2-8.1V17.1a2 2 0 0 0-.6-1.5c-.4-.3-1-.5-1.5-.5h-10.3a2 2 0 0 0-1.5.5c-.3.4-.6 1-.6 1.5V41c0 4 .8 7.4 2.1 10.2 1.4 2.8 3.3 4.9 5.7 6.3Zm47.4 2.2c-.6 0-1.1-.2-1.5-.6-.3-.5-.5-1-.5-1.5V17.1c0-.6.2-1 .5-1.5a2 2 0 0 1 1.5-.5h9c.6 0 1 .2 1.4.5.4.4.6 1 .6 1.5v3.7a14.6 14.6 0 0 1 11.5-5.7c6.4-.1 10.8 2.2 13 7.1a14 14 0 0 1 5.5-5 15 15 0 0 1 7.7-2c2.9 0 5.4.6 7.7 2 2.3 1.2 4 3.2 5.4 5.9 1.4 2.7 2.1 6.1 2.1 10.4v24.3c0 .5-.2 1-.6 1.4-.3.4-.8.6-1.4.6h-9.5a2 2 0 0 1-1.5-.6 2 2 0 0 1-.6-1.4v-24c0-1.8-.3-3.4-.9-4.5-.6-1.2-1.3-2-2.2-2.5-1-.5-2-.7-3.2-.7-1 0-2 .3-3 .7-.9.6-1.7 1.3-2.2 2.5-.6 1.1-1 2.6-1 4.6v23.7c0 .6-.1 1-.5 1.5-.4.4-.9.6-1.4.6h-9.6c-.6 0-1-.2-1.4-.6-.4-.5-.6-1-.6-1.5V34c0-2-.3-3.5-.9-4.6-.6-1.2-1.3-2-2.3-2.5-.9-.5-1.9-.7-3-.7-1 0-2 .3-3 .7-1 .6-1.8 1.3-2.3 2.5a10 10 0 0 0-1 4.5v23.8c0 .6-.1 1-.5 1.5a2 2 0 0 1-1.5.6H274ZM352 58a20.6 20.6 0 0 0 13.6 1c1.6-.6 3-1.3 4.2-2.2 1.2-.8 2.2-1.8 2.9-2.9v3.9c0 .5.2 1 .6 1.4.3.4.8.6 1.4.6h9.5c.6 0 1-.2 1.5-.6.4-.4.6-.9.6-1.4v-26c0-2.4-.4-4.6-1-6.7-.8-2-2-3.7-3.6-5.2a16.6 16.6 0 0 0-6.1-3.5c-2.6-.8-5.6-1.2-9-1.2-3.5 0-6.5.4-8.9 1.2-2.4.8-4.3 1.9-5.9 3.2a13.5 13.5 0 0 0-3.4 3.8c-.8 1.3-1.1 2.4-1.1 3.4 0 .5 0 1 .4 1.3.3.3.8.5 1.4.5h9.2c.9 0 1.6-.4 2-1 .6-1.1 1.4-2 2.3-2.6 1-.6 2.2-.9 3.8-.9 2.1 0 3.6.5 4.5 1.6.8 1 1.2 2.5 1.2 4.5v1.1L362 33c-5.3.8-9.5 2.4-12.6 4.6a10.9 10.9 0 0 0-4.8 9.4c0 2.4.7 4.6 2 6.5 1.5 2 3.3 3.4 5.6 4.6Zm16.2-8.8a9.2 9.2 0 0 1-7.3.5 5 5 0 0 1-2.1-1.5c-.6-.6-.9-1.4-.9-2.4 0-1.2.6-2.3 1.8-3.2 1.1-.9 3-1.5 5.6-2l7-1.2v1.1c0 2.2-.3 4-1 5.5a7.4 7.4 0 0 1-3.1 3.2Zm-61 69c-.5 0-.8-.2-1-.4-.3-.3-.5-.6-.5-1.1v-44c0-.4.2-.7.4-1 .3-.3.6-.4 1-.4h3c.5 0 .9.1 1.1.4.3.2.4.6.4 1v23l13.4-11.2.3-.2 1-.7 1.3-.2h3.4c.4 0 .7.1 1 .4.3.2.4.5.4 1 0 .1 0 .3-.2.5l-.6.6L316 99l17 16.8c.6.4.8.8.8 1.1 0 .4 0 .7-.3 1-.3.2-.6.3-1 .3h-3.4c-.6 0-1 0-1.4-.2l-1.1-.8-15-14.4v14c0 .4 0 .7-.3 1-.3.3-.7.4-1 .4h-3.1v.1Zm-90.7-40.8c.3.3.6.4 1 .4h4.1c.4 0 .8-.1 1-.4.4-.3.6-.7.6-1v-3.5c0-.5-.2-.8-.5-1.1-.3-.3-.7-.5-1.1-.5h-4c-.5 0-.8.2-1 .5-.4.3-.5.6-.5 1v3.5c0 .5.1.9.4 1.1Zm.5 40.4c.3.2.7.4 1 .4h3.1c.5 0 .8-.2 1-.4.3-.3.5-.7.5-1.1V84.9c0-.5-.2-.9-.4-1.1-.3-.3-.6-.4-1-.4h-3.1c-.4 0-.8.1-1 .4-.3.3-.5.6-.5 1v31.9c0 .5.2.8.4 1Zm-27.7-.5c1.7.6 3.7.9 6.1.9 3 0 5.6-.4 7.5-1.1 2.1-1 3.6-2.1 4.7-3.6 1-1.5 1.5-3.2 1.5-5a9 9 0 0 0-1-4.3 9 9 0 0 0-3.5-3.3 21 21 0 0 0-6.6-2.3 40 40 0 0 1-6-1.6 6 6 0 0 1-2.6-1.8c-.5-.6-.8-1.4-.8-2.2 0-1.4.6-2.5 1.7-3.4 1-.9 2.6-1.3 4.7-1.3 1.6 0 2.7.2 3.7.5 1 .4 1.6.9 2.2 1.4.6.5 1.1 1.1 1.5 1.7l.5.4c.3.2.5.3.8.3h2.7c.4 0 .7-.2 1-.5.3-.3.4-.6.4-1 0-.6-.3-1.3-.9-2.1a12.7 12.7 0 0 0-6.2-4.6c-1.6-.6-3.4-.8-5.7-.8-2.7 0-5 .4-6.8 1.4-1.7.9-3.1 2-4 3.6a8.5 8.5 0 0 0-.5 8.7 8.2 8.2 0 0 0 3.2 3.2c1.5.8 3.6 1.6 6.1 2.2 2.6.6 4.6 1 6.1 1.6 1.5.5 2.5 1.1 3 1.8.6.6 1 1.4 1 2.5a4 4 0 0 1-2.2 3.8c-1.4.8-3.2 1.2-5.4 1.2a11 11 0 0 1-3.7-.6 8 8 0 0 1-2.6-1.5 29.5 29.5 0 0 1-2.5-2.3l-.5-.2h-2.9c-.3 0-.6.2-1 .4a1 1 0 0 0-.5 1.1c0 .5.4 1.2 1 2 .4 1 1.2 1.8 2.3 2.6 1 .9 2.5 1.6 4.2 2.2Zm52 .9c-2 0-4-.4-5.8-1.3-1.7-.9-3.1-2-4.2-3.5a8 8 0 0 1-1.6-5c0-2.9 1.2-5.2 3.6-7 2.4-1.8 5.5-3 9.4-3.5l9.5-1.3v-1.9c0-2-.6-3.6-1.8-4.8-1.1-1.1-3-1.7-5.7-1.7-1.8 0-3.4.3-4.6 1.1-1.2.8-2 1.8-2.5 3-.2.6-.7 1-1.3 1h-2.9c-.5 0-.8-.2-1-.5-.3-.2-.4-.6-.4-1 0-.6.3-1.4.7-2.3.5-1 1.3-2 2.3-2.8 1-1 2.4-1.7 4-2.3 1.6-.6 3.5-1 5.8-1 2.6 0 4.8.4 6.5 1a10 10 0 0 1 6.3 6.6c.5 1.3.7 2.8.7 4.3v21.5c0 .4-.2.8-.4 1-.3.3-.6.5-1 .5h-3c-.5 0-.9-.2-1.1-.4-.3-.3-.4-.6-.4-1.1v-3.4a11.5 11.5 0 0 1-5.7 4.1c-1.6.5-3.3.7-5.3.7Zm1.4-4.8c1.8 0 3.4-.4 4.8-1.1a8 8 0 0 0 3.4-3.6c.8-1.6 1.3-3.5 1.3-6V101l-7.5 1.1c-3 .4-5.3 1.2-6.8 2.2-1.6 1-2.3 2.3-2.3 3.8 0 1.2.3 2.2 1 3 .8.8 1.6 1.4 2.7 1.8 1.1.4 2.3.6 3.4.6Zm25.3 16c.2.3.6.4 1 .4h3.2c.4 0 .8-.2 1-.5.3-.3.4-.7.4-1v-15c1 1.4 2.4 2.5 4 3.5 1.7.9 3.8 1.3 6.3 1.3 2.4 0 4.5-.4 6.2-1.2 1.6-.8 3-2 4.1-3.4 1.1-1.3 1.9-3 2.5-4.8.5-1.8.8-3.7 1-5.8V98.6c-.2-2-.5-4-1-5.8-.6-1.7-1.4-3.4-2.5-4.8-1-1.4-2.5-2.5-4.1-3.4a14 14 0 0 0-6.2-1.2c-2.5 0-4.7.5-6.4 1.4-1.7 1-3 2.2-4 3.6v-3.5c0-.5-.2-.8-.5-1-.3-.3-.6-.5-1-.5h-3c-.4 0-.8.2-1 .4-.3.3-.5.7-.5 1.1v43.4c0 .5.2.9.5 1.1Zm19.8-17.9c-1.3 1-3 1.5-5.2 1.5a8 8 0 0 1-5-1.5 8.7 8.7 0 0 1-3-3.6c-.6-1.4-1-3-1-4.4v-5c0-1.5.4-3.1 1-4.7a8.3 8.3 0 0 1 2.9-3.7c1.3-1 3-1.5 5-1.5 2.3 0 4 .4 5.3 1.4 1.2 1 2.1 2.3 2.7 3.8.5 1.7.9 3.3 1 5.1v3.7c-.1 1.8-.5 3.6-1 5.1a7.9 7.9 0 0 1-2.7 3.8Zm52.2 2.6c2.5 2.8 6 4.1 10.5 4.1a14 14 0 0 0 5.8-1c1.7-.6 3.2-1.4 4.4-2.3 1.1-.8 2-1.8 2.7-2.7.7-.9 1-1.7 1-2.3 0-.4 0-.7-.3-1-.3-.3-.7-.4-1-.4H360c-.5 0-.9 0-1 .2a3 3 0 0 0-1 1l-1.3 1.3a9.3 9.3 0 0 1-6.3 2.3c-1.8 0-3.3-.4-4.6-1.4a9.1 9.1 0 0 1-3-3.7c-.6-1.5-1-3.1-1-4.9v-.6H364c.4 0 .8 0 1-.3.3-.3.5-.6.5-1.1v-1c0-3.5-.6-6.5-1.7-9a13.3 13.3 0 0 0-13.2-7.9c-3 0-5.5.6-7.6 1.9-2.2 1.2-3.9 3-5.1 5.3-1.3 2.3-2 5-2.2 8V103a17 17 0 0 0 4.4 11.2Zm19.3-15.8h-17.6v-.2c0-2 .4-3.6 1-5.1a8.3 8.3 0 0 1 3-3.6c1.3-.9 3-1.3 4.8-1.3a8.3 8.3 0 0 1 7.7 4.9c.7 1.5 1 3.2 1 5.1v.2Zm15.2 19.9c-.4 0-.8-.2-1-.4-.3-.3-.4-.6-.4-1.1V85c0-.5.1-.8.4-1.1.2-.3.6-.5 1-.5h3c.4 0 .8.2 1 .5.4.3.5.6.5 1v2.9c.9-1.4 2-2.5 3.6-3.3 1.5-.7 3.3-1 5.4-1h2.5c.4 0 .8 0 1 .3.3.3.5.6.5 1.1v2.6c0 .5-.2.8-.4 1-.3.3-.7.4-1 .4h-4c-2.3 0-4 .7-5.4 2a7.7 7.7 0 0 0-2 5.6v20.2c0 .4-.2.8-.5 1-.3.3-.7.5-1 .5h-3.2Zm16.4 11.2c.2.3.6.4 1 .4h1.2c2.7 0 5-.5 6.5-1.5s2.7-2.3 3.4-4c.7-1.7 1-3.7 1-6V84.9c0-.5-.1-.9-.4-1.1-.2-.3-.6-.4-1-.4h-3.1c-.5 0-.8.1-1 .4-.3.3-.5.6-.5 1v33.5c0 1.1-.1 2.2-.4 3.2-.2 1-.7 1.7-1.4 2.3-.7.6-1.8.9-3.4.9h-.9c-.4 0-.8.1-1 .4-.3.3-.4.6-.4 1v2.2c0 .5.1.9.4 1.1Zm7-52c.3.3.7.4 1 .4h4.2c.4 0 .8-.1 1-.4.4-.3.6-.7.6-1v-3.5c0-.5-.2-.8-.5-1.1-.3-.3-.7-.5-1.1-.5h-4.1c-.4 0-.8.2-1 .5-.3.3-.5.6-.5 1v3.5c0 .5.2.9.5 1.1Zm25 40.8c-2 0-4-.4-5.8-1.3-1.7-.9-3.1-2-4.2-3.5a8 8 0 0 1-1.6-5c0-2.9 1.2-5.2 3.6-7a20 20 0 0 1 9.4-3.5l9.5-1.3v-1.9c0-2-.6-3.6-1.7-4.8-1.2-1.1-3.1-1.7-5.8-1.7-1.8 0-3.4.3-4.6 1.1-1.2.8-2 1.8-2.5 3-.2.6-.7 1-1.3 1H415c-.5 0-.8-.2-1-.5-.3-.2-.4-.6-.4-1 0-.6.3-1.4.7-2.3.5-1 1.3-2 2.3-2.8 1-1 2.4-1.7 4-2.3 1.6-.6 3.5-1 5.8-1 2.6 0 4.8.4 6.5 1a10 10 0 0 1 6.3 6.6c.5 1.3.7 2.8.7 4.3v21.5c0 .4-.2.8-.4 1-.3.3-.6.5-1 .5h-3c-.5 0-.9-.2-1.1-.4-.3-.3-.4-.6-.4-1.1v-3.4a11.5 11.5 0 0 1-5.7 4.1 18 18 0 0 1-5.3.7Zm1.4-4.8c1.8 0 3.4-.4 4.8-1.1a8 8 0 0 0 3.4-3.6c.9-1.6 1.3-3.5 1.3-6V101l-7.5 1.1c-3 .4-5.3 1.2-6.8 2.2-1.6 1-2.3 2.3-2.3 3.8 0 1.2.3 2.2 1 3 .8.8 1.6 1.4 2.7 1.8 1.1.4 2.2.6 3.4.6Z" fill="#384753"/></svg>