<svg width="420" height="127" viewBox="0 0 420 127" fill="none" xmlns="http://www.w3.org/2000/svg">
<path fill-rule="evenodd" clip-rule="evenodd" d="M223.9 81C219.553 85.417 214.352 87.637 208.33 87.637C203.456 87.637 199.314 86.6422 195.09 84.183V74.053C198.491 76.362 202.763 78.561 206.98 78.561C215.772 78.561 221 72.503 221 63.921C221 55.329 215.588 49.091 206.79 49.091C202.862 49.091 199.678 50.505 197.191 53.339C194.525 56.409 193.147 60.797 193.147 66.599V106.579H192.485C187.639 106.579 183.714 102.647 183.714 97.797V65.097C183.714 51.217 192.186 40.017 206.744 40.017C213.934 40.017 219.774 42.479 224.204 47.424C228.367 52.045 230.43 57.904 230.43 64.944C230.43 71.214 228.253 76.574 223.903 80.994L223.9 81ZM326 80.6613C321.67 85.3153 316.097 87.6373 309.34 87.6373C302.208 87.6373 296.4 85.1753 291.97 80.2303C287.809 75.5523 285.745 69.6903 285.745 62.7103C285.745 50.3503 295.273 40.0203 307.815 40.0203C312.651 40.0203 316.85 41.0423 321.095 43.3723V53.6023C317.694 51.2933 313.423 49.0943 309.205 49.0943C300.413 49.0943 295.175 55.1513 295.175 63.7443C295.175 72.2153 300.714 78.5743 309.385 78.5743C313.31 78.5743 316.542 77.1013 319.127 74.1353C321.696 71.1873 323.031 66.8563 323.031 61.0353V29.2153C323.031 24.3633 326.959 20.4333 331.802 20.4333H332.464V62.5333C332.464 69.9473 330.321 76.0133 325.996 80.6733L326 80.6613ZM352.64 35.5313C351.65 36.6413 350.231 37.1523 348.499 37.1523C345.261 37.1523 342.943 34.7613 342.943 31.5433C342.943 28.2503 345.217 26.0273 348.499 26.0273C351.657 26.0273 354.055 28.3713 354.055 31.5433C354.055 33.1123 353.596 34.4573 352.64 35.5313ZM400.57 61.0313C400.57 57.3073 399.163 54.3603 396.337 52.1263C393.791 50.1163 390.611 49.0943 386.741 49.0943C378.202 49.0943 372.721 55.7773 372.721 64.0143C372.721 71.9453 378.532 78.5643 386.651 78.5643C392.299 78.5643 395.319 75.2613 398.541 71.1463V83.0063C396.9 84.2373 395.013 85.5793 393.086 86.3673C391.053 87.2171 388.625 87.6303 385.821 87.6303C372.241 87.6303 363.291 76.3703 363.291 63.3603C363.291 56.6783 365.364 51.1503 369.537 46.8503C373.965 42.2853 379.777 40.0213 386.887 40.0213C400.367 40.0213 410.017 47.7723 410.017 61.7813V86.7113H409.357C404.509 86.7113 400.581 82.7793 400.581 77.9283L400.57 61.0313ZM271.47 58.3563C270.278 54.6643 268.784 52.8483 265.346 50.9263C257.171 46.3523 249.126 50.2464 245.386 58.3203L271.47 58.3563ZM264.272 87.4963C258.246 88.7783 252.332 87.7899 246.562 84.5613C240.934 81.4153 237.166 76.7363 235.282 70.5513C231.463 58.0513 239.286 44.1113 251.872 40.7413C258.109 39.0693 264.092 39.8261 269.772 43.0043C279.208 48.2863 282.652 56.4543 282.042 66.9843L244.032 66.9082C244.592 71.2012 247.25 74.5602 250.987 76.6492C254.775 78.7682 258.258 79.2752 261.487 78.2712C265.076 77.1432 267.986 74.2112 270.353 71.4822L278.099 77.1322C274.94 82.7922 270.639 86.1422 264.269 87.5022L264.272 87.4963ZM343.822 40.9563H353.255V86.7063H352.591C347.75 86.7063 343.822 82.7743 343.822 77.9233L343.822 40.9563ZM23.822 86.7063C14.595 86.7063 10.012 80.4223 10.012 71.6463V38.3563C10.012 33.5053 13.94 29.5743 18.785 29.5743H19.4474V40.9643H35.3874V50.0363H19.4474V72.7063C19.4474 76.5603 21.1654 77.6433 24.8434 77.6433H35.3834V86.7143L23.822 86.7063ZM78.612 80.9243C73.952 85.3983 68.352 87.6393 61.842 87.6393C55.395 87.6393 49.822 85.3953 45.162 80.9243C40.486 76.4343 38.155 70.7243 38.155 63.8343C38.155 50.3943 48.405 40.0243 61.835 40.0243C68.284 40.0243 73.865 42.2853 78.555 46.7893C83.261 51.3073 85.611 57.0093 85.611 63.8293C85.611 70.7163 83.277 76.4293 78.601 80.9193L78.612 80.9243ZM122.722 51.9643C121.338 54.2883 120.265 55.9543 119.51 56.9613C118.678 58.0563 117.856 58.9303 117.042 59.5353C123.598 61.6553 126.04 66.2033 126.04 72.9753V86.7053H125.378C120.534 86.7053 116.605 82.7733 116.605 77.9223V73.9113C116.605 69.5243 114.64 66.5483 109.998 66.5483H101.431V86.7083H100.768C95.9242 86.7083 91.9992 82.7763 91.9992 77.9253V29.2153C91.9992 24.3633 95.9232 20.4333 100.768 20.4333H101.431V57.3933H104.219C107.283 57.3933 109.296 56.3443 110.452 54.3593L118.376 40.9693L129.126 40.9586L122.722 51.9643ZM171.422 80.9243C166.76 85.3983 161.162 87.6393 154.652 87.6393C148.206 87.6393 142.632 85.3953 137.972 80.9243C133.296 76.4343 130.965 70.7243 130.965 63.8343C130.965 50.3943 141.215 40.0243 154.645 40.0243C161.096 40.0243 166.675 42.2853 171.365 46.7893C176.071 51.3073 178.42 57.0093 178.42 63.8293C178.42 70.7163 176.087 76.4293 171.411 80.9193L171.422 80.9243ZM164.613 53.1843C162.012 50.4613 158.711 49.0943 154.651 49.0943C145.97 49.0943 140.771 55.4313 140.771 63.8343C140.771 72.1173 146.091 78.5743 154.651 78.5743C163.212 78.5743 168.531 72.1213 168.531 63.8343C168.531 59.4363 167.21 55.9073 164.613 53.1843ZM71.813 53.1843C69.213 50.4613 65.911 49.0943 61.852 49.0943C53.171 49.0943 47.972 55.4313 47.972 63.8343C47.972 72.1173 53.292 78.5743 61.852 78.5743C70.412 78.5743 75.732 72.1213 75.732 63.8343C75.732 59.4363 74.413 55.9073 71.815 53.1843H71.813Z" fill="#42B549"/>
</svg>
