<svg xmlns="http://www.w3.org/2000/svg" width="35.777" height="39.088" viewBox="0 0 9.466 10.342" xmlns:v="https://vecta.io/nano"><path d="M4.733 10l.033.001c.402.007.739-.383.516-.855-.024.365-.185.562-.525.562-.008 0-.016 0-.024 0h-.024c-.34 0-.501-.197-.525-.562-.223.472.114.862.516.855L4.733 10zm0-.58l.026.001c.299.008.362-.295.288-.477-.047.183-.186.276-.314.246-.129.029-.267-.064-.314-.246-.074.183-.011.485.288.477l.026-.001zm0-.903h.093c.941.041 2.139.364 2.632.173.339-.132.888-.543 1.143-.181.077.109-.234.382-.241.06-.126-.26-.396.128-.2.334-.713.706-2.654-.099-2.839-.151-.053-.015-.082.042-.041.116.068.121.276.297.326.483.102.375-.2.976-.801.992a.87.87 0 0 1-.074-.001l-.073.001c-.601-.017-.903-.618-.801-.992.05-.186.258-.362.326-.483.042-.075.012-.131-.041-.116-.185.053-2.125.857-2.839.151.196-.206-.074-.594-.2-.334-.006.322-.318.05-.241-.06.256-.362.804.05 1.143.181.494.192 1.692-.131 2.632-.173h.093zm0-1.114c-.053-.007-.113.015-.117.066-.061.512-.007.436-.183.651-.251.304-.496.278-.891.3-.373.02-.669.046-.733-.115-.034-.085.175-.72.752-.837.205-.042.584.061.583-.061 0-.207-.569-.145-.748-.099-.625.161-1.154.416-1.64 1.122.921.479 1.91.009 2.951-.045l.025.002.025-.002c1.041.054 2.031.524 2.951.045-.487-.706-1.015-.961-1.64-1.122-.179-.046-.747-.108-.748.099 0 .122.379.02.584.061.577.117.786.752.752.837-.063.161-.36.135-.733.115-.395-.022-.64.005-.891-.3-.177-.214-.122-.139-.183-.651-.004-.051-.065-.074-.117-.066zm0-3.058c-.027-.016-.052-.07-.053-.159-.009-.419-.118-.865-.076-1.353.017-.172.071-.268.129-.291.058.023.112.119.129.291.042.488-.067.934-.076 1.353-.002.089-.026.143-.053.159zm0-4.344c-.627.471-1.62.574-1.603 1.788-.01.481.214.751 1.052.743.251-.002.252.858.244 1.235-.157-.268-.305-.45-.587-.664-.646-.564-.952-.684-.952-1.374 0-.524.129-.691.404-1.043-.966.157-2.357.986-1.334 1.986.453.44 1.179.085 1.675.501.283.206.821.826.821 1.252l.014.251-.044 1.126c-.005.066-.088.053-.089-.007 0-1.216-.649-2.079-1.783-2.079-.419 0-.659.087-1.101.07-.417.005-.908-.327-.924-.678-.464.446-.395 1.53.458 1.44.548-.116.609-.645 1.398-.645.496-.003.899.009 1.289.417.171.179.318.348.413.965.009.141-.049.135-.083.058-.293-.664-.597-.825-1.136-.848C1.998 4.49 1.251 5.764.621 5.764.333 5.764.167 5.65 0 5.424c.015.528.088 1.019.657 1.024.349.005.633-.424.821-.733.327-.536.953-1.163 1.638-1.021.601.158.949.79.949 1.722 0 .186-.075.514-.3.514-.215 0-.292-.052-.292-.261 0-.386.134-1.299-.305-1.299-.24-.009-.344.131-.352.314.001.202.401.374.329.058-.022-.097.136-.137.145.011-.008.316-.286.28-.257.962 0 .525.416.417.961.42.447.054.289.532-.025.534-.155.006-.205-.087-.308-.102-.086-.012-.171.013-.19.074-.048.259.323.331.616.331.21.011-.081.178-.225.183-.099.003-.095.104-.005.106.512-.014.546-.365.647-.837.009-.122.087-.175.229-.183.142.007.22.06.229.183.1.472.135.823.647.837.09-.002.095-.103-.005-.106-.144-.005-.434-.172-.225-.183.294 0 .664-.072.616-.331-.019-.062-.104-.086-.19-.074-.103.015-.153.108-.308.102-.314-.002-.472-.48-.025-.534.545-.003.961.105.961-.42.029-.682-.249-.646-.257-.962.009-.147.167-.108.145-.011-.073.316.328.145.329-.058-.008-.183-.113-.323-.352-.314-.439 0-.305.913-.305 1.299 0 .21-.077.261-.292.261-.224 0-.3-.328-.3-.514 0-.932.348-1.565.949-1.722.685-.142 1.311.485 1.638 1.021.189.309.472.738.822.733.569-.005.642-.496.657-1.024-.167.226-.333.339-.621.339-.63 0-1.377-1.274-2.244-1.268-.539.023-.844.184-1.137.848-.034.077-.092.083-.083-.058.096-.617.242-.786.413-.965.391-.408.794-.42 1.29-.417.788 0 .849.529 1.398.645.853.09.922-.995.458-1.44-.016.351-.507.684-.924.678-.441.018-.682-.07-1.101-.07-1.134 0-1.782.862-1.782 2.079-.001.06-.085.073-.09.007l-.044-1.126.014-.251c0-.426.537-1.047.821-1.252.496-.416 1.222-.06 1.675-.501 1.022-1-.368-1.829-1.334-1.986.275.352.404.519.404 1.043 0 .69-.306.809-.952 1.374-.283.214-.431.396-.588.664-.007-.377-.007-1.238.244-1.235.839.008 1.062-.261 1.052-.743C6.353.574 5.36.471 4.733 0zm-.374.762c-.227.063-.346.43-.327.811 0 .202.17.47.291.554-.082-.221-.205-.745.037-1.365zm.248 5.164c0-.119-.122-.136-.127.043.017.545-.232.524-.248.735 0 .156.03.266.231.245.177 0 .146-.335.146-.49zM2.486 3.122c-.146.237-.608.448-.905.448-1.082 0-1.04-1.172-.205-1.724-.022.798.382 1.274 1.11 1.276zM1.317 4.686c-.131.52-.347.845-.79.845-.591-.058-.56-.911-.434-1.239.296.534.781.569 1.223.394zm2.445 1.867c.108-.011.149.103.109.182s-.153.069-.201-.007c-.037-.059-.014-.171.092-.175zm-2.917.655c-.246 0-.548-.39-.582-.634.152.066.338.138.525.109.212-.042.223-.063.335-.215.198.314.152.74-.278.74zm.427.531c-.323.099-.562-.3-.622-.418.212.131.622.124.705-.109.083.222.128.428-.083.527zm.116.413c-.138-.024-.221-.087-.248-.189.169.026.346-.024.412-.165.087.153.065.394-.164.354zm1.569-.443c-.146.141-.286.406-.401.576-.074.109-.189.071-.159.008.092-.193.355-.52.56-.583zm-.116-.092l-.351.356c-.232.276-.347.437-.412.276-.013-.032.115-.224.304-.363.149-.109.276-.217.459-.27zm.997 2.536c-.218.116-.772-.017-.853-.286.322-.157.48-.281.721-.471a1.61 1.61 0 0 0 .132.758zm-1.766-.75c.162-.022.537.002.774-.074.387-.123.599-.155.96-.307-.139.261-.535.496-.664.584-.334.287-1.004.265-1.071-.203zM5.107.762c.227.063.345.43.327.811 0 .202-.17.47-.291.554.082-.221.205-.745-.037-1.365zm-.248 5.164c0-.119.122-.136.127.043-.017.545.232.524.248.735 0 .156-.03.266-.231.245-.177 0-.146-.335-.146-.49zm2.121-2.805c.146.237.608.448.905.448 1.082 0 1.04-1.172.205-1.724.022.798-.382 1.274-1.11 1.276zm1.169 1.564c.131.52.347.845.79.845.591-.058.56-.911.434-1.239-.296.534-.782.569-1.223.394zM5.702 6.553c-.108-.011-.149.103-.109.182s.153.069.201-.007c.037-.059.014-.171-.092-.175zm2.917.655c.246 0 .548-.39.582-.634-.152.066-.338.138-.525.109-.212-.042-.223-.063-.335-.215-.198.314-.152.74.278.74zm-.427.531c.323.099.562-.3.622-.418-.212.131-.622.124-.705-.109-.083.222-.128.428.083.527zm-.116.413c.138-.024.222-.087.248-.189-.169.026-.346-.024-.412-.165-.087.153-.065.394.164.354zm-1.569-.443c.146.141.286.406.401.576.074.109.189.071.159.008-.092-.193-.355-.52-.56-.583zm.116-.092l.351.356c.232.276.346.437.412.276.013-.032-.115-.224-.304-.363-.149-.109-.276-.217-.459-.27zm-.997 2.536c.218.116.772-.017.854-.286-.322-.157-.48-.281-.721-.471.009.359-.029.475-.132.758zm1.766-.75c-.162-.022-.537.002-.774-.074-.387-.123-.599-.155-.96-.307.139.261.535.496.664.584.334.287 1.004.265 1.07-.203" fill="#fbc707" fill-rule="evenodd"/></svg>